<svg fill="none" height="80" viewBox="0 0 225 80" width="225" xmlns="http://www.w3.org/2000/svg" xmlns:xlink="http://www.w3.org/1999/xlink"><clipPath id="a"><path d="m0 0h72.1398v80h-72.1398z"/></clipPath><g fill="#e91315"><path d="m98.1776 61.6884c-5.2569 0-8.5187-2.5922-9.3104-7.3972l2.8501-.569c.57 3.3825 2.7235 5.1211 6.302 5.1211 3.4517 0 5.8587-1.6438 5.8587-3.9831 0-2.0547-1.869-3.4772-6.4288-4.8049-5.5419-1.5806-7.917-3.9199-7.917-7.2075 0-3.7618 3.1035-6.101 8.0754-6.101 4.8454 0 7.7584 2.2128 8.7404 6.4487l-2.945.6323c-.634-2.8451-2.534-4.2676-5.8588-4.2676-3.1034 0-5.0352 1.2012-5.0352 3.256 0 1.8967 1.6151 3.1928 6.1436 4.5837 5.9534 1.8019 8.1704 4.1411 8.1704 7.4603 0 4.1412-3.389 6.8282-8.6454 6.8282z"/><path d="m117.308 61.4671c-3.04 0-4.275-1.1697-4.275-4.1411v-10.5583h-2.787v-2.7503h2.787v-4.7733h2.85v4.7733h3.388v2.7503h-3.388v10.1473c0 1.4225.633 1.707 1.552 1.707h1.995v2.7186c-.634.0633-1.425.1265-2.122.1265z"/><path d="m130.96 61.4671c-4.94 0-8.74-3.7618-8.74-8.8513s3.8-8.8829 8.74-8.8829c4.941 0 8.741 3.7934 8.741 8.8829s-3.8 8.8513-8.741 8.8513zm0-2.7502c3.199 0 5.764-2.6554 5.764-6.1011s-2.565-6.0694-5.764-6.0694c-3.198 0-5.763 2.6237-5.763 6.0694s2.565 6.1011 5.763 6.1011z"/><path d="m143.196 61.0877v-17.0703h2.85v2.1813c1.394-1.8019 3.072-2.4658 5.701-2.3077v3.256c-3.611-.1897-5.701 1.6122-5.701 4.963v8.9777z"/><path d="m160.098 61.4671c-3.452 0-5.827-1.9283-5.827-4.805 0-2.5921 1.868-4.0463 4.306-4.805 3.611-1.138 6.619-1.5173 6.619-3.3192 0-1.2328-1.362-2.0864-3.388-2.0864-2.09 0-3.579.9168-4.181 2.5606l-2.691-.8851c.855-2.7819 3.356-4.3941 6.935-4.3941 4.022 0 6.429 2.0232 6.429 5.9114v7.9662c0 .9167.791 1.4225 1.678 1.0431v2.4974c-.443.2212-.887.3161-1.362.3161-1.298 0-2.375-.7903-2.787-2.0232-1.646 1.3277-3.673 2.0232-5.731 2.0232zm.126-2.7502c1.995 0 4.117-.9484 5.257-2.2761v-4.3308c-3.99 2.3077-8.329 1.7703-8.329 4.3941 0 1.4225 1.299 2.2128 3.072 2.2128z"/><path d="m179.941 61.4671c-4.877 0-7.664-4.2044-7.664-8.9461 0-5.0895 3.135-8.7881 7.632-8.7881 3.262 0 5.795 1.9284 6.872 5.1211l-2.755.6955c-.792-2.118-2.375-3.0031-4.054-3.0031-2.882 0-4.782 2.6554-4.782 5.9746 0 3.3508 1.964 6.1326 4.719 6.1326 1.995 0 3.452-1.5173 4.18-3.7617l2.787.6638c-1.014 3.9515-3.642 5.9114-6.935 5.9114z"/><path d="m190.494 61.0561v-23.8668h2.882v8.9777c1.773-1.8018 3.832-2.4341 5.763-2.4341 3.61 0 5.827 2.1812 5.827 6.354v10.9692h-2.85v-10.7479c0-2.7502-1.488-3.7934-3.452-3.7934-2.596 0-4.655 1.707-5.288 3.9514v10.5899z"/><path d="m214.819 61.4671c-3.452 0-5.827-1.9283-5.827-4.805 0-2.5921 1.868-4.0463 4.307-4.805 3.61-1.138 6.619-1.5173 6.619-3.3192 0-1.2328-1.362-2.0864-3.389-2.0864-2.09 0-3.578.9168-4.18 2.5606l-2.692-.8851c.855-2.7819 3.357-4.3941 6.935-4.3941 4.022 0 6.429 2.0232 6.429 5.9114v7.9662c0 .9167.792 1.4225 1.678 1.0431v2.4974c-.443.2212-.886.3161-1.361.3161-1.299 0-2.375-.7903-2.787-2.0232-1.647 1.3277-3.674 2.0232-5.732 2.0232zm.127-2.7502c1.995 0 4.116-.9484 5.257-2.2761v-4.3308c-3.991 2.3077-8.329 1.7703-8.329 4.3941 0 1.4225 1.298 2.2128 3.072 2.2128z"/><g clip-path="url(#a)"><path d="m47.7838 18.8737h-14.3852c-.5255 0-.9733.4477-.9733.9733v51.8877c0 2.3903-.07 4.7963 0 7.1867v.1012c0 .5256.4478.9733.9733.9733h18.8817c.5256 0 .9733-.4477.9733-.9733v-18.8817l-.9733.9733h18.8817c.5256 0 .9733-.4477.9733-.9733v-15.4986c0-.7903.0117-1.5845-.0195-2.3748-.0973-2.402-.5372-4.8041-1.3392-7.0738-1.5495-4.3953-4.3408-8.304-8.0199-11.1655-3.788-2.9432-8.3546-4.7146-13.1354-5.0844-.6112-.0467-1.2224-.0701-1.8375-.0701-1.2536 0-1.2536 1.9427 0 1.9466 4.5394.0116 8.9658 1.382 12.711 3.9476 3.5545 2.4371 6.4276 5.9682 8.0394 9.9742.8448 2.0984 1.3976 4.3214 1.5767 6.5794.0778.9655.0778 1.931.0778 2.9004v13.26c0 .8409-.0506 1.7013 0 2.5383v.1207l.9733-.9733h-18.8817c-.5255 0-.9733.4477-.9733.9733v18.8817l.9733-.9733h-18.8817l.9733.9733v-56.758c0-.7669.0506-1.5494 0-2.3164 0-.035 0-.0662 0-.1012l-.9733.9733h14.3852c1.2535 0 1.2535-1.9466 0-1.9466z"/><path d="m70.4767 59.4515c-2.1334 2.1335-4.2629 4.263-6.3964 6.3965-3.3831 3.3831-6.7662 6.7662-10.1533 10.1532-.7786.7787-1.5572 1.5573-2.332 2.332-.8876.8877.4906 2.2619 1.3782 1.3782 2.1335-2.1334 4.263-4.263 6.3964-6.3964 3.3832-3.3831 6.7663-6.7663 10.1533-10.1533.7787-.7786 1.5573-1.5573 2.332-2.332.8876-.8876-.4905-2.2619-1.3782-1.3782z"/><path d="m52.0237 21.218c2.3903.4983 4.4965 1.5416 6.0771 3.3636.3154.366.5568.693.8526 1.1758.2764.4477.5178.9148.7242 1.3976 0 0 .035.0817.0856.2219.0389.1051.0818.2141.1168.3231.0895.2609.1752.5256.2492.7903.144.5139.2491 1.0395.3309 1.569.0233.1596 0-.0467.0233.1713.0117.1284.0273.2569.039.3854.0233.2725.0389.5411.0467.8137.0156.5061 0 1.0122-.0351 1.5144-.0194.2336-.0428.4633-.07.6969-.0195.1596.0194-.1402 0 .0155-.0078.0623-.0195.1207-.0273.183-.0233.1363-.0467.2725-.0701.4049-.0895.4672-.2024.9343-.3387 1.3898-.0661.2219-.1401.44-.218.658-.035.0934-.0701.1868-.1051.2764-.0195.0506-.0428.1051-.0623.1557-.0428.109.0584-.1324-.0156.0351-.179.3932-.3698.7747-.5917 1.1406-.7592 1.2458-1.7247 2.3904-2.8303 3.3326-2.0945 1.783-4.7613 2.4137-7.4164 1.7207-1.3665-.3542-2.6279-1.0511-4.0178-1.3275-1.4871-.292-2.9743-.0117-4.0021 1.1757-.9266 1.0706-1.3976 2.4098-1.0901 3.8114.2414 1.1017.9188 2.0633 1.421 3.0561.5022.9927.7825 2.0906.4555 3.2858-.2803 1.0239-.9733 1.7986-1.8298 2.0672-.1284.039-.2569.0701-.3893.0974-.0506.0116-.0973.0194-.1479.0272.1518-.0194-.0195 0-.0428 0-.1363.0078-.2687.0117-.4049.0078-.0662 0-.1363-.0078-.2025-.0117-.1635-.0155 0 0-.0973-.0155-.5879-.1168-.9733-.2765-1.456-.6385-.7436-.5606-1.1485-1.4171-1.4677-2.3515-.6735-1.9816-.9383-3.8931-1.0979-5.8319-.0117-.1324-.0195-.2647-.0272-.3971-.074-1.2458-2.0206-1.2536-1.9466 0 .1012 1.7558.3582 3.5311.7669 5.2441.5957 2.4916 1.6974 5.0494 4.4032 5.7852 2.7057.7358 5.4815-1.2108 5.9409-4.0255.2453-1.4989-.0973-2.8771-.7747-4.2163-.2687-.5295-.5723-1.0356-.841-1.565-.0584-.1168-.1168-.2375-.1713-.3582-.0077-.0195-.07-.1713-.0155-.035-.0234-.0584-.0467-.1207-.0662-.1791-.0389-.1207-.0779-.2375-.109-.3621-.0156-.0623-.0273-.1207-.039-.183-.0389-.1791 0 .0467-.0077-.0662-.0117-.144-.0117-.2842 0-.4243 0-.0273.0272-.1869 0-.0312.0116-.0661.0272-.1323.0428-.1985.074-.2998.1518-.4633.3348-.7553.3465-.5606.8098-.9616 1.4171-1.0706.4672-.0817 1.1056.0584 1.6663.2258.7163.218 1.4093.5061 2.11.7631 2.951 1.0784 6.1551.9733 8.8803-.6696 4.3681-2.6357 6.7857-7.6267 6.5404-12.6488-.1129-2.3087-.7397-4.6251-2.001-6.5755-1.4016-2.1685-3.4727-3.7335-5.8787-4.6329-.6774-.253-1.3742-.4438-2.0789-.5917-.5139-.109-1.0511.1518-1.1991.6813-.1323.4827.1635 1.0901.6813 1.1991z"/><path d="m50.8138 31.7295c-.0312-2.8186-1.7792-5.2986-4.4149-6.2874-2.6356-.9889-5.6411-.1324-7.3852 1.9816-1.7909 2.1723-2.0906 5.3024-.6307 7.7356s4.3058 3.6479 7.0738 3.1223c3.1067-.5878 5.3219-3.4376 5.3609-6.5521.0155-1.2536-1.931-1.2536-1.9466 0-.0234 1.9504-1.2341 3.8036-3.1067 4.4576-1.8726.6541-4.0956.0896-5.3726-1.5261-1.2769-1.6156-1.3236-3.7569-.2919-5.4309 1.0316-1.6741 3.06-2.5578 4.9715-2.149 2.2074.471 3.7724 2.3982 3.7997 4.6523.0156 1.2536 1.9621 1.2536 1.9466 0z"/><path d="m44.1248 33.7689c1.1266 0 2.04-.9133 2.04-2.04 0-1.1266-.9134-2.04-2.04-2.04-1.1267 0-2.04.9134-2.04 2.04 0 1.1267.9133 2.04 2.04 2.04z"/><path d="m33.3991 16.6574h27.6023c5.5243 0 8.2379-3.718 8.7401-5.828.5022-2.11012-2.0322-7.43592-8.199-.802 0 0 3.679-7.13224-1.2458-8.74011-4.9248-1.607863-10.5854 3.31695-12.8278 8.03932 0 0 .2686-5.82802-4.8042-4.4187-5.0727 1.40931-9.2695 11.75339-9.2695 11.75339z"/><path d="m33.3988 17.6312h27.3181c2.0556 0 4.0878-.3893 5.8747-1.4444 1.787-1.055 3.5973-2.9549 4.0878-5.1.3504-1.5261-.2725-3.35976-1.4716-4.36419-1.9621-1.6468-4.481-.67351-6.2835.71244-.7475.57619-1.4288 1.21855-2.0711 1.90375l1.53 1.1796c.4165-.80976.7436-1.68182.9966-2.55388.436-1.50275.7047-3.25466.1713-4.77298-.7124-2.04-2.6123-2.989929-4.6717-3.1651196-2.4333-.2102294-4.8704.8603826-6.7897 2.2774796-2.293 1.69352-4.224 3.95153-5.462 6.52879l1.8142.49053c.0467-1.02389-.1597-2.10618-.5568-3.04832-.3387-.80588-.8642-1.50664-1.6078-1.98161-.9227-.58786-2.04-.65793-3.0951-.49442-2.184.3387-3.9515 1.82977-5.3452 3.4571-1.3938 1.62733-2.6357 3.58553-3.6751 5.53993-.6229 1.1718-1.203 2.3709-1.7052 3.6011-.1986.4867.2141 1.0707.6813 1.1991.5567.1519 1.0005-.1907 1.199-.6813.0818-.1985.0117-.0272-.0116.0234.0778-.1752.1518-.3543.2336-.5334.2725-.6112.5606-1.2146.8603-1.8103.8838-1.748 1.8726-3.4532 3.0406-5.02601.5372-.72412 1.2341-1.52611 1.9504-2.19183.3893-.35817.5957-.53336.9928-.7981.1713-.11679.3504-.2258.5333-.32702.0974-.0545.1908-.10511.292-.15183.0467-.02336.3465-.15183.1869-.08954.4127-.16352.9811-.30756 1.3042-.33871.218-.01946.436-.01557.6579-.01168.0468 0 .0935.00779.1402.01168-.1791-.01946-.0273 0 .0078 0 .1129.02336.2219.04672.3309.08176.0779.02336.1557.05061.2297.08176-.2064-.08565.035.02335.0817.0545.074.04672.148.08954.2219.14015.0195.01168.1168.08954.0195.01168-.109-.08954.0506.04672.0701.06618.0506.05062.1051.10123.1518.15184.0195.02336.1908.2258.109.12068-.0778-.09732.0623.09344.0896.13237.0506.07786.1012.15962.144.24527s.0857.1674.1246.25305c.074.14794-.0506-.15572.0234.0584.0584.1713.1206.34259.1674.51779.0467.1674.0817.33481.1168.50221.0116.07008.0233.14015.035.21023.0467.26084-.0039-.1129.0039.02336.0233.33091.0623.66183.0506.99664-.0428.93437 1.3937 1.36647 1.8142.49054.9772-2.02833 2.3865-3.82696 4.0917-5.29077 1.5027-1.28474 3.4182-2.41764 5.4348-2.55779.8565-.0584 1.9115.07397 2.5811.40878.3855.19465.4789.25305.7397.51778.0623.06229.1246.12848.1791.19855-.1285-.15572.0428.06229.0584.08176.0935.14794.1791.29588.2492.4516-.0896-.19465.0233.0584.0311.08565.0273.08176.0545.16351.0779.24527.0389.14015.0662.2803.0934.42435.0545.2842-.0156-.19855.0117.08954.0078.08954.0156.17519.0195.26474.0116.19465.0116.38931.0039.58007-.0078.16351-.0195.33092-.0351.49443 0 .02336-.0389.31924-.0078.09733-.0116.08954-.0272.17908-.0428.26473-.0584.34649-.1363.68909-.2297 1.02779-.1674.61511-.3776 1.21076-.619 1.79863.1012-.24527 0-.0039-.0428.09733-.0351.07786-.0701.15572-.1051.22969-.0312.07008-.0662.13626-.1013.20634-.4866.94603.7397 2.02053 1.53 1.17963.5879-.6268 1.203-1.24192 1.8921-1.7636.4594-.34649 1.1251-.75916 1.5378-.92268.2375-.09343.4789-.15961.728-.21801.0428-.01168.0857-.01557.1285-.02336.1518-.02725-.1557.01168-.0078 0 .1207-.00779.2375-.01557.3582-.01557.07 0 .3698.03504.1129 0 .0817.01168.1635.02725.2452.05061.0896.02336.1752.0545.2648.08175.1284.03894-.1635-.07786-.0429-.01946.0507.02336.1013.04672.148.07397.0778.04282.1518.08954.2258.13626.035.02336.074.05061.1051.07397 0 0-.1479-.12458-.0701-.05061.1363.12458.2648.25305.3893.3932.1013.1168-.0934-.15962.0429.06229.0389.06619.0817.12458.1207.19077.0428.07397.0856.14793.1245.2258.0351.07007.1441.34649.0467.08954.0545.14794.1091.29588.148.44771.0233.07786.0389.15962.0584.23748.0194.08565.0467.36984.0194.06618.0117.14016.0273.28036.0273.42046 0 .0623 0 .1246-.0039.1869 0 .035-.0078.07-.0078.1012 0 .1635.0662-.2063.0078-.0623-.0545.1363-.074.2998-.1207.4438-.0272.0779-.0545.1557-.0817.2336-.0935.257.0467-.0662-.0818.1869-.2024.4049-.4243.7825-.6813 1.1523-.074.1052-.1869.2492-.3582.4439-.1907.218-.3971.4243-.6112.6229-.4165.3815-.8059.6696-1.3314.9733-1.4989.872-3.1729 1.1484-4.8859 1.1484h-19.9874c-2.3864 0-4.7846-.0662-7.1711 0-.0389 0-.0779 0-.1129 0-1.2536 0-1.2536 1.9466 0 1.9466z"/><path d="m33.6603 49.7659c-2.6941-.9227-5.3842-1.8454-8.0783-2.7719l-1.1446-.3932.2336 1.7791c2.6941-1.1679 5.3881-2.3359 8.0861-3.5038.3776-.1635.7591-.327 1.1367-.4944.4828-.2103.5918-.9149.3504-1.3315-.292-.4983-.8487-.5606-1.3314-.3504-2.6941 1.168-5.3881 2.3359-8.0861 3.5039-.3776.1635-.7591.327-1.1368.4944-.8331.3621-.4749 1.5378.2336 1.7792 2.6941.9226 5.3842 1.8453 8.0783 2.7719l1.1446.3932c1.1874.4087 1.6974-1.4716.5178-1.8765z"/><path d="m34.0875 41.0496c-2.6863-2.1919-5.3764-4.3837-8.0627-6.5756-.3854-.3153-.7708-.6306-1.1602-.946l-.689 1.6624h9.2228c1.2536 0 1.2536-1.9466 0-1.9466h-9.2228c-.7826 0-1.3665 1.1096-.6891 1.6624 2.6862 2.1918 5.3764 4.3837 8.0627 6.5755.3854.3153.7708.6307 1.1601.946.4088.3309.9772.3971 1.3782 0 .3426-.3426.4088-1.0433 0-1.3781z"/><path d="m52.2811 20.2791c10.3285 2.1023 10.7295 13.3535 7.4164 18.3795-2.912 4.4187-6.7312 6.4315-11.2511 5.2246-2.5851-.6891-5.4854-2.8381-7.3658.1129-1.9777 3.1028 2.0439 4.8119 1.5417 8.526-.5023 3.714-4.3292 4.7146-6.7313 2.3125-2.0984-2.0984-2.4877-8.9192-2.4877-8.9192v-26.0684l18.8817.4321zm-3.0327 11.4459c0-2.8304-2.2931-5.1234-5.1234-5.1234s-5.1234 2.293-5.1234 5.1234c0 2.8303 2.2931 5.1233 5.1234 5.1233s5.1234-2.293 5.1234-5.1233z"/><path clip-rule="evenodd" d="m25.8156 41.656c-.019.0118-.0379.0207-.0565.0269l-.0556.0286c-.7129.3654-1.4029.7191-2.107 1.1786-.4903.32-.9276.7255-1.3617 1.1281-.2208.2048-.4409.4088-.6666.6005-.9733.8214-2.0206 1.5689-3.1768 2.1061-1.3276.619-2.7213 1.0006-4.2747.95-1.5533-.0507-3.0794-.4906-4.51212-1.059-1.23023-.4905-2.41763-1.0823-3.55832-1.7558l-.01471-.0085c-.18279-.1065-.37758-.2199-.34346-.4625.02725-.1869.15962-.2881.3426-.3076.11721-.0125.2504.023.3791.0573.0722.0192.143.038.20876.0478.2258.0351.4516.0545.67741.0545.34648 0 .68908-.0428 1.02389-.1362.63069-.1791 2.11005-.9928 1.74805-1.8804-.18301-.4555-.80981-.6852-1.23026-.8215-.7942-.2569-1.63512-.3504-2.47214-.3815-.83703-.0311-1.62344-.0662-2.4371-.2881-.74749-.1985-1.46771-.4905-2.16069-.8214-.03884-.0186-.07794-.0372-.11725-.0559l-.00082-.0004c-.48058-.2286-.991694-.4717-1.41972-.7847-.1596183-.1168-.2958779-.2686-.2063358-.4827.0855878-.2018.2935758-.2307.4920568-.2583.054312-.0076.107911-.015.158096-.0259 1.689623-.3621 3.060003-1.7909 4.064433-3.1145.16868-.2217.32289-.4553.4771-.689.27644-.4188.55288-.8376.91275-1.1875.45939-.4477 1.0161-.7903 1.60397-1.0395.50221-.2141 1.02389-.362 1.56114-.4555.04476-.008.09198-.0177.14054-.0277.1179-.0242.2437-.0501.36108-.0579-.07767-.0481-.15607-.1254-.23197-.2003-.06232-.0614-.12296-.1212-.1801-.1618-.30756-.2141-.63848-.3932-.97718-.545-.01367-.0061-.02743-.0122-.0412-.0182-.17051-.0749-.34266-.1505-.37147-.3595-.06353-.4948.88368-.6163 1.38176-.6803.08187-.0105.15163-.0194.20274-.0282 2.60837-.436 5.13897.3037 7.20617 1.9271.8993.7047 1.6896 1.5417 2.3982 2.441.3054.39.5777.8052.8499 1.2202.3038.4632.6074.926.9565 1.3532.9889 1.2068 2.3515 2.0828 3.7218 2.7952.1177.0603.2546.1181.3977.1785.4205.1774.8939.3772 1.0856.7286.2433.446.0713.9443-.3143 1.224-.0172.0179-.0386.034-.0646.0477zm-12.0415.0039c-.1129-.1597.0117-.3738.2064-.3582 2.5617.2219 2.1801-1.7714.9616-2.6629-.9071-.6618-2.4371-.7825-3.2586-.7358-.2413.0117-.327-.3192-.109-.4283 2.0673-1.0511 5.3025-1.1017 7.3697.5529 2.3826 1.9076 2.3826 3.8152-.9538 4.7691-2.4605.7046-3.7218-.4711-4.2163-1.1368z" fill-rule="evenodd"/></g></g></svg>